<svg width="19" height="27" fill="none" xmlns="http://www.w3.org/2000/svg"><path d="M18.024 25.659h-.488c0-.006-.002-.01-.003-.016l-.013-.06a3.965 3.965 0 0 0-.04-.17 8.343 8.343 0 0 0-.04-.153l-.004-.015a7.045 7.045 0 0 0-.047-.164l-.017-.053-.034-.112-.02-.06a6.476 6.476 0 0 0-.037-.108l-.02-.057a5.865 5.865 0 0 0-.049-.133l-.01-.028a6.746 6.746 0 0 0-.086-.21l-.043-.102-.028-.063a5.213 5.213 0 0 0-.072-.157c-.018-.038-.034-.075-.054-.111l-.02-.043a5.385 5.385 0 0 0-.075-.143l-.034-.061-.049-.088-.037-.065a11.461 11.461 0 0 0-.086-.146c-.018-.03-.034-.059-.054-.088l-.05-.079-.07-.109a6.114 6.114 0 0 0-.045-.067l-.049-.072-.049-.07a.827.827 0 0 0-.047-.065c-.016-.02-.034-.048-.052-.071l-.048-.065-.1-.13-.046-.06-.06-.073-.046-.055-.063-.074-.044-.052-.067-.075-.039-.043a8.133 8.133 0 0 0-.251-.265l-.038-.037-.078-.077-.039-.037a6.65 6.65 0 0 0-.082-.078l-.029-.026a7.08 7.08 0 0 0-.297-.26l-.028-.022a6.313 6.313 0 0 0-.094-.077l-.031-.025-.099-.077-.017-.013a8.89 8.89 0 0 0-.341-.249l-.017-.011a7.822 7.822 0 0 0-.11-.074l-.024-.016a7.578 7.578 0 0 0-.113-.073l-.007-.004a8.048 8.048 0 0 0-.384-.23l-.005-.003a10.84 10.84 0 0 0-.125-.067l-.018-.01a8.305 8.305 0 0 0-.678-.324l-.014-.006a8.407 8.407 0 0 0-.185-.076h1.223c.2 0 .361-.217.361-.486 0-.268-.162-.486-.36-.486h-.365a9.24 9.24 0 0 0 .074-.185c.345-.204.951-.637 1.553-1.434l.005-.006c.045-.06.09-.121.134-.185l.009-.013c.043-.062.087-.127.13-.194l.012-.018.061-.097s0-.003.003-.004l.063-.103.013-.022.053-.091.01-.017.06-.107.014-.025a5.893 5.893 0 0 0 .12-.227l.014-.027.045-.092.016-.033.055-.116.011-.025.045-.097.017-.04a6.703 6.703 0 0 0 .105-.25l.017-.044.042-.107.01-.027.048-.13.016-.046.036-.104c.005-.013.01-.026.013-.04a11.457 11.457 0 0 0 .06-.183l.034-.106.014-.047a7.18 7.18 0 0 0 .054-.19l.03-.112.014-.051.037-.151.01-.043.029-.122.012-.055.034-.16a8.49 8.49 0 0 0 .034-.173l.012-.057.026-.145.005-.03a16.346 16.346 0 0 0 .058-.374l.006-.044.023-.18.007-.058.017-.146.006-.052.018-.19c0-.018.003-.035.004-.054.005-.05.01-.102.013-.154 0-.02.003-.038.005-.057l.013-.2c0-.015 0-.033.002-.046a12.941 12.941 0 0 0 .012-.23l.007-.21v-.03l.004-.191V10.657c0-.065-.003-.133-.004-.2v-.037l-.009-.235-.003-.062a15.729 15.729 0 0 0-.01-.2c0-.017 0-.033-.003-.051l-.015-.245-.004-.057c-.006-.069-.01-.138-.017-.208 0-.02-.003-.04-.004-.06l-.023-.255c0-.016-.004-.032-.005-.049a29.189 29.189 0 0 0-.062-.554c0-.01-.003-.022-.004-.032l-.031-.242-.01-.072a68.777 68.777 0 0 0-.04-.279C15.239-1.407 5.55.09 5.55.09l.31 1.983L0 7.941l.256 2.266 2.22 1.296c.099-.239.226-.466.378-.677 1.432-1.566 4.21-2.795 5.006-3.05.16-.051.25-.077.25-.077-3.804 4.668-3.372 10.016-3.202 11.29-.177.033-.313.235-.313.481 0 .269.162.486.361.486h1.223c-2.034.808-3.65 2.346-4.492 4.278a7.672 7.672 0 0 0-.22.57l-.014.044a2.3 2.3 0 0 0-.034.11l-.018.056a5.41 5.41 0 0 0-.032.105l-.018.065a3.636 3.636 0 0 0-.047.172l-.025.097a4.542 4.542 0 0 0-.023.1l-.025.111H.743a.737.737 0 0 0-.508.19.638.638 0 0 0 0 .955.71.71 0 0 0 .508.19H18.03a.737.737 0 0 0 .508-.19.637.637 0 0 0 0-.955.71.71 0 0 0-.508-.19l-.006-.005z" fill="#595653"/></svg>